<svg id="Layer_1" data-name="Layer 1" xmlns="http://www.w3.org/2000/svg" viewBox="0 0 124.01 40.9"><defs><style>.cls-1{fill:#fff;}</style></defs><title>20160413_TML_logo_NH_hor_WHITE</title><path class="cls-1" d="M51.18,73.44c-.06.21-.17.41-.21.63a3,3,0,0,0,0,.67s0,.07,0,.11a2.44,2.44,0,0,1,0,.27l-.43.43c-.31.32-.61.64-.91,1a.83.83,0,0,1-.68-.34,1.3,1.3,0,0,1,.36-1c.23-.35.51-.68.75-1a3.51,3.51,0,0,0,.5-.77,6.06,6.06,0,0,0,.29-.82l.42-.08a1.73,1.73,0,0,1-.14,1M42.8,68.78v0h-.4a5.2,5.2,0,0,0-.69.86,4.63,4.63,0,0,1-.88,1c-.23.17-.41.38-.62.55a1.61,1.61,0,0,1-.88.37c-.06-.06-.1-.11-.16-.16a.21.21,0,0,1,0-.08,1.41,1.41,0,0,1,.16-.49,4,4,0,0,0,.43-1,.56.56,0,0,1,.16-.29.93.93,0,0,1,.26-.15,14.26,14.26,0,0,0,1.4-.87.47.47,0,0,0,.13-.15c.14-.24.27-.5.4-.75a5,5,0,0,1,.29-.5,1.63,1.63,0,0,1,.25-.27h.15l.09.1v.61a2.69,2.69,0,0,0,.06.63c.06.19,0,.4.06.62l-.22,0m-2,3.87a3.58,3.58,0,0,1-.51.44,6.27,6.27,0,0,1-1.16.65L38,74.25,37.73,74a.91.91,0,0,1,.24-.49l.39-.39c.23-.24.45-.49.67-.74,0,0,0,0,0-.09a5.37,5.37,0,0,1,1.66-.51.51.51,0,0,1,.35.21.85.85,0,0,1-.28.66M57.32,77l-.08-.1h0a3.83,3.83,0,0,1-.52-.92,6.44,6.44,0,0,1-.24-.61.44.44,0,0,1,0-.16,2.15,2.15,0,0,0-.12-.5c-.06-.2-.1-.4-.16-.64-.38-.26-.85-.46-1.27-.73a8,8,0,0,0-1.4-.51,1.6,1.6,0,0,0-.08-.76.81.81,0,0,0-.52-.55h-.49c0-.07-.14-.15-.14-.23,0-.32-.26-.42-.49-.54a3.93,3.93,0,0,0-.41-.14l-.27.08a10.57,10.57,0,0,0-.93,1.68c-.07.11-.08.26-.25.28s-.05,0-.07.07L48.44,74l-1.27-1.33a9.25,9.25,0,0,0-.09-1.08c0-.22,0-.44-.06-.66a1.58,1.58,0,0,0-.5-1,1.92,1.92,0,0,1-.55-1,5,5,0,0,1-.13-.86,1.65,1.65,0,0,0-.29-.76c-.14-.2-.29-.38-.44-.57a3.65,3.65,0,0,0-.66-.53.33.33,0,0,0-.23-.07,1.31,1.31,0,0,1-.53-.1s0-.14,0-.19,0-.36,0-.53a8,8,0,0,0-.68-1.1l-.68.62a2.55,2.55,0,0,0-.48.65,4.73,4.73,0,0,1-.56.79c-.3.35-.62.7-.92,1.06s-.7.75-1.07,1.11a1.42,1.42,0,0,0-.38.8c-.08.36-.15.72-.25,1.07,0,.15,0,.32-.11.45s-.13.19-.18.26h-.16c-.29.2-.65.29-.93.52l-.2.15c-.2.2-.39.41-.6.6a2.49,2.49,0,0,0-.72,1.24c0,.12-.05.24-.09.36a1.56,1.56,0,0,1-.42.68l-.24.24a.58.58,0,0,1-.46-.26c-.15-.18-.27-.37-.42-.55s-.39-.45-.58-.66a1.23,1.23,0,0,0-.61-.1l-.36.19-.14-.21L32,73h0a1.61,1.61,0,0,1-.67.18c-.21.59-.5,1.15-.73,1.72l-.76.1,0,0a2.85,2.85,0,0,1-.68.31c-.29.06-1.52.43-2.48.72V94.67H61.42V81.57Z" transform="translate(-15.93 -56.18)"/><path class="cls-1" d="M19.69,92.72c0-.31.09-.47.42-.48s.62-.09.94-.1a1.09,1.09,0,0,0,.9-.51.41.41,0,0,1,.53-.16.92.92,0,0,0,1.13-.33,1.92,1.92,0,0,1,.47-.37,1.42,1.42,0,0,0,.13.12,5.82,5.82,0,0,1-.45.72c-.38.43-.79.84-1.2,1.25a.5.5,0,0,0-.09.6,1.11,1.11,0,0,1-.26,1.38.35.35,0,0,1-.24.08l8.59-.24a2.57,2.57,0,0,1-.12-.27,6.49,6.49,0,0,0-.75-1.4,2,2,0,0,1-.41-1.15c0-.13.09-.36.17-.38.23,0,.54-.22.7.12s.17.54.29.8.19.32.32.35.29-.12.38-.24.26-.45.43-.75c.16.31.28.58.44.83a5.16,5.16,0,0,0,.59.8.53.53,0,0,0,.47.09c.1,0,.14-.27.17-.41s0-.28,0-.46l.29.43a1,1,0,0,0,.3.29.56.56,0,0,0,.72,0,1,1,0,0,0,0-1c-.14-.2-.29-.39-.43-.58a.39.39,0,0,1,.08-.1,3.65,3.65,0,0,1,.34.18A3.55,3.55,0,0,0,37,92.3c.08,0,.24-.13.23-.2s0-.45-.17-.55a2.39,2.39,0,0,0-1.17-.6.72.72,0,0,1-.48-.33,1.34,1.34,0,0,0-.91-.67c-.22,0-.41-.3-.61-.47s-.62-.54-1-.77a1.06,1.06,0,0,0-.48-.07.66.66,0,0,1-.53-.31,4.33,4.33,0,0,0-1-1,2.61,2.61,0,0,0-1-.17.7.7,0,0,1-.58-1,1.22,1.22,0,0,0,0-1.13.77.77,0,0,1,0-.75c.1-.18.22-.21.36-.07a3.61,3.61,0,0,1,.9,1c.19.41.31.75.82.79.08,0,.16.19.21.31.13.32.24.65.38,1a1.42,1.42,0,0,0,1,.75c.15-.6-.22-1.12-.2-1.67l.1,0c.21.29.45.57.63.88a1.39,1.39,0,0,0,1.43.54.29.29,0,0,0,.1-.28c-.14-.29-.3-.57-.47-.85s-.2-.29-.29-.43l.11-.09a2.6,2.6,0,0,1,.37.45,1.1,1.1,0,0,0,.74.49c.26.07.78-.47.67-.73a.52.52,0,0,0-.34-.19c-.3,0-.82-.64-.74-.93a.49.49,0,0,1,.3-.28,3.83,3.83,0,0,1,.68-.08c.27,0,.39-.21.25-.43a1.12,1.12,0,0,0-.51-.43,4.89,4.89,0,0,0-1.14-.22.8.8,0,0,1-.65-.29.79.79,0,0,0-.66-.38.32.32,0,0,1-.25-.12,2.54,2.54,0,0,0-1.85-1c-.25,0-.36-.16-.28-.4s0-.48-.23-.7a8.24,8.24,0,0,1-2.05-2.77c-.07-.22-.08-.37.16-.49a1.53,1.53,0,0,0,.33-.28l.83,1,.39.48a.65.65,0,0,0,.92.1.51.51,0,0,0,.13-.42,2.88,2.88,0,0,0-.3-.61c-.06-.12-.1-.24-.15-.36a.41.41,0,0,1,.11-.07c.17.21.35.42.5.64s.35.58.57.84a1.06,1.06,0,0,0,1.31-.15.6.6,0,0,0-.08-.53,5.28,5.28,0,0,0-.66-.68.85.85,0,0,1-.2-.25c.66,0,1.35-.11,1.89.45.14.15.25.45.54.17s.34-.6.11-.84a4,4,0,0,0-.67-.57c-.28-.19-.6-.3-.89-.48a1.17,1.17,0,0,1-.45-.4,1.25,1.25,0,0,0-1.28-.76c-.54,0-1.09,0-1.63.08a.94.94,0,0,1-1.1-.88c.22.06.44.09.65.16S30,74.2,30,74a.58.58,0,0,0-.29-.67,4.15,4.15,0,0,0-1-.34c-.32,0-.55-.13-.63-.49s-.23-.76-.33-1.15a.47.47,0,0,1,.05-.36,3.65,3.65,0,0,1,.39.49,1.12,1.12,0,0,0,1.18.56c-.1-.21-.19-.42-.28-.63l.09-.09a4.71,4.71,0,0,1,.42.33,5.65,5.65,0,0,1,.65.74,1.89,1.89,0,0,0,1.31.69c.36.07.51-.08.41-.43a1.66,1.66,0,0,0-.32-.52c-.12-.15-.28-.27-.41-.41s-.15-.41.11-.54a5.63,5.63,0,0,0,.62-.37.55.55,0,0,0,.17-.65c-.08-.26-.29-.2-.48-.2a2.1,2.1,0,0,0-.56,0c-.84.2-1.32-.46-2-.78.43-.23.37-.51.24-.83a.52.52,0,0,1,.1-.4c.17-.26.12-.49-.18-.53a.78.78,0,0,1-.55-.37,11.8,11.8,0,0,1-.85-1.19,3.26,3.26,0,0,1-.22-1.1c.43.26.77.72,1.3.26.69.37.69.37.85-.26l.15.21c.15.27.27.3.45.07a.76.76,0,0,0,.16-.53,3.91,3.91,0,0,0-.46-1.28,1.72,1.72,0,0,0-1.43-.74,1.38,1.38,0,0,1-.89-.4,2,2,0,0,1-.79-1.69c0-1.11-.07-2.21-.14-3.31a1.76,1.76,0,0,0-.18-.68.54.54,0,0,0-.39-.26c-.1,0-.25.18-.29.31a2,2,0,0,0-.09.65c0,.8,0,1.59.08,2.39a.82.82,0,0,1-.26.7,1.23,1.23,0,0,0-.32,1.42,7.26,7.26,0,0,1,.19,1.15,1.11,1.11,0,0,1-.54,1A2.77,2.77,0,0,0,24.16,65a3.72,3.72,0,0,1-1.51,1.75c-.24.15-.45,0-.64-.17a1.65,1.65,0,0,0-.37-.2c-.07.14-.2.29-.2.44a1.06,1.06,0,0,0,1.42,1c.23-.07.44-.18.76-.31-.19.33-.32.59-.46.83s-.27.5-.41.74c.6.37,1,.16,1.92-.83-.05.26-.09.45-.12.64s-.05.39-.09.69l.93-.82a.62.62,0,0,1-.25.89l-.73.43a2.08,2.08,0,0,1-1,.28,3.83,3.83,0,0,0-1.3.36c-.5.2-1,.46-1.47.71a4.43,4.43,0,0,0-.69.43.6.6,0,0,0-.2.44c0,.1.21.22.35.27.31.1.63.15,1,.24a6.47,6.47,0,0,1-.39.7c-.17.25-.06.45.08.65a.37.37,0,0,0,.56.06c.31-.22.58-.5.88-.75a.13.13,0,0,0,0,.07c.1.12.2.29.32.31a.43.43,0,0,0,.37-.19,6.88,6.88,0,0,0,.52-.91.52.52,0,0,1,.64-.29l-.19.87.8-.65a.52.52,0,0,1,.69,0l-.24.46a9.48,9.48,0,0,0-.5,1,1.12,1.12,0,0,1-.77.77,5.88,5.88,0,0,0-.71.23c-.5.18-.55.4-.13.79l-.42.17c-.5.19-.55.4-.18.81l.12.17a2.7,2.7,0,0,1-.63.2,1.29,1.29,0,0,0-.85.36,1.78,1.78,0,0,1-1.16.49,4.1,4.1,0,0,1-.5,0,.82.82,0,0,0-.5.21l0,.21a.26.26,0,0,0,0,.11,3.79,3.79,0,0,0,.42.74c.07,0,.12.09.11.13a.38.38,0,0,1-.09.18c-.12.24-.29.65-.07.67l.58,0-.35.57c-.05.08-.17.17-.17.25a.53.53,0,0,0,.14.34.41.41,0,0,0,.35-.06,4.33,4.33,0,0,0,1.7-1.72s.07-.08.07-.09l.64.94a3.5,3.5,0,0,0,1.53-.93,3.07,3.07,0,0,1,.72-.67.45.45,0,0,1,.43,0,.52.52,0,0,1,0,.44c-.29.62-.6,1.24-.92,1.84a2.67,2.67,0,0,1-.39.44,3.12,3.12,0,0,0-.34.47.33.33,0,0,0,0,.29c.21.26.19.38-.07.57a5.45,5.45,0,0,1-1.71.84l-.4.13c-.31.13-5.17,2.19-4.28,3l.21.07.05,0v.07c.94.51,2.31-.28,2.61-.41l.32-.15,1.07-.5s0,.16,0,.23a2.27,2.27,0,0,0-.48,1.32c0,.07-.08.15-.13.21s-.19.16-.21.25a.69.69,0,0,0,0,.47c.05.08.31.1.43,0a1.72,1.72,0,0,0,1.1-1.21c0-.12.06-.25.09-.37H22a.58.58,0,0,1,0,.14c.11.43.26.51.63.25a.88.88,0,0,0,.4-.52c.13-.91.82-1.38,1.41-1.93a3.91,3.91,0,0,1,.84-.58,3.05,3.05,0,0,1-.63,1.32c-.33.37-.62.82-1.27.65v.11c.1.15.21.29.31.43s.16.33-.13.41a2.73,2.73,0,0,0-1.32.8.46.46,0,0,1-.07.07,2,2,0,0,1-1.72.84,1.22,1.22,0,0,0-.26,0l-.33,0a2.86,2.86,0,0,0-1.52.82c-.59.67-.76,1.1-1.62,1.45a1.52,1.52,0,0,1-.33.28,2,2,0,0,0-.42.64.35.35,0,0,0,0,.3.36.36,0,0,0,.29,0c.25-.12.48-.26.71-.39l.09,0a2.22,2.22,0,0,1-.2.47c-.26.32-.55.61-.83.91s-.3.55-.13.7a.28.28,0,0,0,.15.08h.09a.92.92,0,0,0,.36-.22c.14-.1.28-.22.43-.34a3.19,3.19,0,0,1,.61-.45c1.14-.63,1.48-1,1.54-.63" transform="translate(-15.93 -56.18)"/><path class="cls-1" d="M71.88,63.22h-.25a7.29,7.29,0,0,0-1.57.12c-.44.14-.74.84-.88,1.15a.07.07,0,0,1-.1.05l-.18-.05s-.06,0,0-.08c.1-.35.45-1.63.47-1.74s.06-.16.1-.16a.17.17,0,0,1,.12,0l.13.09a.82.82,0,0,0,.56.17c.53,0,1,0,1.88,0h.48c1.08,0,1.5,0,2,0a1,1,0,0,0,.52-.14l.18-.12a.21.21,0,0,1,.12,0s.07,0,.09.16.21,1.35.29,1.78c0,0,0,.07-.06.08l-.16,0s0,0-.08-.07-.37-1-.7-1.11a5.93,5.93,0,0,0-1.72-.17h-.28v2.83c0,.14,0,2.92,0,3.09s.1.4.34.4h.63c.08,0,.1,0,.1.1v.21s0,.07-.1.07-.42,0-1.39,0-1.37,0-1.51,0-.09,0-.09-.09v-.19c0-.07,0-.1.07-.1h.67a.3.3,0,0,0,.33-.24c0-.29,0-3.34,0-3.53Z" transform="translate(-15.93 -56.18)"/><path class="cls-1" d="M79.16,66.09c.08,0,1.14,0,1.26-.06.29,0,.37-.13.46-.43a2.37,2.37,0,0,0,.08-.49A.06.06,0,0,1,81,65h.24a.06.06,0,0,1,.06.08c0,.17,0,1,0,1.13,0,.35,0,.82.06,1a.07.07,0,0,1-.06.08l-.22,0s-.06,0-.07-.09-.08-.35-.11-.46a.47.47,0,0,0-.43-.39c-.47,0-1.15,0-1.31,0V67c0,.53,0,1.5,0,1.69,0,.52.26.72.57.78a3.93,3.93,0,0,0,.73.07c.17,0,.67,0,.87,0a1.93,1.93,0,0,0,.87-.35,10,10,0,0,0,.81-1c0-.05.06-.09.12-.06l.16.09s0,.06,0,.14l-.53,1.46a.2.2,0,0,1-.21.14h-.87l-3.11,0-.84,0h-.43c-.06,0-.09,0-.09-.06v-.27s0,0,.1,0h.4c.46,0,.5-.07.5-.44V65.77c0-.82,0-2.06,0-2.16,0-.32-.14-.39-.51-.39h-.36s-.08,0-.08-.07v-.26s0,0,.07,0c.22,0,.57,0,1.22,0H82l.4,0c.05,0,.07,0,.08,0s.47,1.49.5,1.59,0,.07,0,.09l-.15.08s-.07,0-.08,0a8,8,0,0,0-1-1.13,1.55,1.55,0,0,0-.75-.27l-1.77,0Z" transform="translate(-15.93 -56.18)"/><path class="cls-1" d="M87.34,63.22h-.25a7.24,7.24,0,0,0-1.57.12c-.44.14-.74.84-.88,1.15a.07.07,0,0,1-.1.05l-.18-.05s-.06,0,0-.08c.1-.35.45-1.63.47-1.74s.06-.16.1-.16a.17.17,0,0,1,.12,0l.13.09a.78.78,0,0,0,.56.17c.53,0,1,0,1.88,0h.47c1.09,0,1.51,0,2,0a1,1,0,0,0,.52-.14l.18-.12.12,0c.06,0,.07,0,.09.16s.21,1.35.29,1.78c0,0,0,.07-.06.08l-.16,0s0,0-.08-.07-.37-1-.7-1.11a5.93,5.93,0,0,0-1.72-.17h-.28v2.83c0,.14,0,2.92,0,3.09s.1.4.34.4h.63c.09,0,.1,0,.1.1v.21s0,.07-.1.07-.42,0-1.39,0-1.37,0-1.51,0-.09,0-.09-.09v-.19c0-.07,0-.1.07-.1H87a.3.3,0,0,0,.33-.24c0-.29,0-3.34,0-3.53Z" transform="translate(-15.93 -56.18)"/><path class="cls-1" d="M98.76,66.55c0-2.18-1.55-3.46-2.65-3.46a1.9,1.9,0,0,0-1.57.59,3.52,3.52,0,0,0-1,2.45c0,2.61,1.81,3.54,2.66,3.54,2.18,0,2.55-2.24,2.55-3.12M94,69.4a3.49,3.49,0,0,1-1.46-3A3.82,3.82,0,0,1,93.46,64a3.24,3.24,0,0,1,2.69-1.26,3.36,3.36,0,0,1,2.22.78,3.82,3.82,0,0,1,1.36,3A3.62,3.62,0,0,1,99,68.64,3.37,3.37,0,0,1,96.13,70,4.32,4.32,0,0,1,94,69.4" transform="translate(-15.93 -56.18)"/><path class="cls-1" d="M102.34,64.16c0-.59-.29-.92-.65-.93h-.41s-.06,0-.06-.07V62.9s0-.06.06-.06h.28l.7,0c.34,0,.55,0,.67,0a.35.35,0,0,1,.29.13c0,.05,2,2.56,2.08,2.7s1.79,2.19,2,2.51h0V67c0-.89,0-1.37,0-1.87a11.59,11.59,0,0,0-.12-1.53.53.53,0,0,0-.55-.39h-.32s0,0,0-.07V62.9s0-.06,0-.06.46,0,1.1,0,.83,0,1,0,.08,0,.08.07v.24s0,.07-.06.07h-.27c-.27,0-.37.17-.39.55,0,.66,0,1.65,0,2.29v3.72c0,.13,0,.23,0,.23s-.2-.12-.23-.15-.6-.76-1.22-1.53-1.42-1.78-1.48-1.84-1.93-2.39-2-2.47h-.06v2.2c0,.92.08,2.54.1,2.74,0,.39.1.58.37.58h.29c.07,0,.08,0,.08.09v.22c0,.06,0,.08-.08.08s-.69,0-1,0l-1,0s-.05,0-.05-.07V69.6a.05.05,0,0,1,.06-.06h.34c.28,0,.39-.12.44-.61,0-.19,0-1.32,0-3.09Z" transform="translate(-15.93 -56.18)"/><path class="cls-1" d="M73.61,78.61c.14-.15,1.13-2.52,1.21-2.65S76,73.49,76,73.29s.12-.12.22-.12c1.32,0,1.66,0,1.77,0s.06,0,.06.07v.23c0,.06,0,.09-.08.09h-.43c-.3,0-.33.18-.33.41s0,1.71,0,2.37V77c0,.5,0,2.11,0,2.31,0,.38.09.53.33.53h.59c.06,0,.07,0,.07.07v.23c0,.06,0,.09-.09.09s-.3,0-1.39,0c-.91,0-1.3,0-1.43,0s-.08,0-.08-.09v-.23s0-.07.08-.07H76c.16,0,.25-.06.27-.35,0-.12,0-1.85,0-2.58v-.64c0-.66,0-2.42,0-2.51h0c-.1.13-1.51,3.26-1.55,3.35s-1.17,2.66-1.21,2.74-.11.24-.19.24-.11-.08-.15-.18l-1.35-3.32c-.19-.46-1.1-2.68-1.23-2.8,0,.14-.06,2.65-.06,2.77s0,2.21,0,2.56c0,.57.13.72.45.72h.5c.06,0,.07,0,.07.07v.25s0,.07-.09.07-.38,0-1.2,0-1.19,0-1.28,0-.09,0-.09-.09V79.9a.05.05,0,0,1,.06-.06h.52c.38,0,.47-.25.53-.59.12-.71.15-3.25.15-3.43s0-1.63,0-1.92,0-.37-.41-.37h-.61s-.06,0-.06-.07V73.2a.05.05,0,0,1,.06-.06c.11,0,.37,0,1.22,0,.46,0,.72,0,.84,0a.23.23,0,0,1,.26.17Z" transform="translate(-15.93 -56.18)"/><path class="cls-1" d="M86,76.86c0-2.18-1.55-3.46-2.65-3.46a1.9,1.9,0,0,0-1.57.59,3.55,3.55,0,0,0-1,2.45c0,2.61,1.82,3.53,2.66,3.53C85.65,80,86,77.74,86,76.86m-4.76,2.85a3.47,3.47,0,0,1-1.46-2.95,3.9,3.9,0,0,1,.92-2.48A3.27,3.27,0,0,1,83.4,73a3.34,3.34,0,0,1,2.23.79,3.83,3.83,0,0,1,1.36,3A3.59,3.59,0,0,1,86.24,79a3.35,3.35,0,0,1-2.86,1.4,4.4,4.4,0,0,1-2.13-.64" transform="translate(-15.93 -56.18)"/><path class="cls-1" d="M90.69,80.14a1.78,1.78,0,0,1-1.18-1.33,10.28,10.28,0,0,1-.16-2.41V74c0-.35-.07-.51-.38-.51h-.46c-.06,0-.07,0-.07-.09v-.22c0-.06,0-.08.09-.08s.58,0,1.36,0,1.25,0,1.36,0,.09,0,.09.06v.26c0,.05,0,.07-.08.07h-.5a.45.45,0,0,0-.48.41c0,.09,0,.78,0,1.29v.65c0,.53,0,1.79,0,2.11a2.39,2.39,0,0,0,.32,1.26,1.86,1.86,0,0,0,1.58.71,2.14,2.14,0,0,0,1.49-.54,2.46,2.46,0,0,0,.52-1.75V75.55c0-.76,0-1.33,0-1.58a.45.45,0,0,0-.45-.44h-.44c-.06,0-.07,0-.07-.08v-.24s0-.07.07-.07.56,0,1.22,0,1,0,1.1,0,.09,0,.09.07v.22c0,.06,0,.1-.06.1h-.4c-.37,0-.4.28-.43.4s0,1.51,0,1.64,0,1.88,0,2.27a2.62,2.62,0,0,1-.83,1.92,2.71,2.71,0,0,1-1.87.59,3.66,3.66,0,0,1-1.34-.21" transform="translate(-15.93 -56.18)"/><path class="cls-1" d="M97.9,74.46c0-.58-.3-.91-.66-.92h-.4s-.06,0-.06-.07V73.2s0-.06.06-.06h.27l.71,0c.34,0,.54,0,.67,0a.34.34,0,0,1,.28.13l2.09,2.7c.11.14,1.78,2.2,2,2.52h0V77.31c0-.88,0-1.37,0-1.86a11.59,11.59,0,0,0-.12-1.53.53.53,0,0,0-.54-.39h-.32s-.06,0-.06-.07V73.2a.05.05,0,0,1,.06-.06c.14,0,.46,0,1.09,0s.84,0,1,0,.07,0,.07.07v.25s0,.07-.06.07h-.26c-.27,0-.37.17-.39.54,0,.67,0,1.65,0,2.3v3.71c0,.14,0,.24-.05.24s-.21-.12-.24-.16l-1.21-1.53c-.69-.86-1.42-1.77-1.48-1.83s-1.94-2.4-2-2.48h-.06v2.21c0,.92.08,2.54.1,2.74,0,.39.09.57.36.57H99c.07,0,.08,0,.08.09v.22c0,.06,0,.08-.08.08l-1,0-1,0s0,0,0-.07V79.9a.05.05,0,0,1,.06-.06h.34c.29,0,.4-.11.45-.6,0-.19,0-1.32,0-3.09Z" transform="translate(-15.93 -56.18)"/><path class="cls-1" d="M108.19,73.53H108a7.2,7.2,0,0,0-1.57.12c-.45.14-.75.83-.89,1.15a.07.07,0,0,1-.1,0l-.17,0s-.06,0,0-.08c.09-.36.44-1.64.46-1.75s.06-.15.1-.15a.14.14,0,0,1,.12,0L106,73a.88.88,0,0,0,.57.16c.52,0,.94.06,1.87.06h.48c1.08,0,1.51,0,2-.06a1,1,0,0,0,.51-.14l.19-.11a.16.16,0,0,1,.12,0s.07,0,.09.15.21,1.35.29,1.79c0,0,0,.07-.06.08l-.16,0s0,0-.08-.07-.38-1-.71-1.11a5.89,5.89,0,0,0-1.71-.17h-.28v2.83c0,.14,0,2.92,0,3.09s.1.39.33.39h.63c.09,0,.1,0,.1.1v.21s0,.08-.1.08-.42,0-1.39,0-1.37,0-1.51,0-.09,0-.09-.1v-.19c0-.06,0-.1.07-.1h.68a.29.29,0,0,0,.32-.23c0-.29,0-3.34,0-3.53Z" transform="translate(-15.93 -56.18)"/><path class="cls-1" d="M116.41,77.08c-.08-.29-.89-2.78-.94-2.93s0-.13-.08-.13-.08.07-.11.14-1,2.67-1.06,2.92Zm-2.32.36c-.1.25-.64,1.76-.69,2s0,.17,0,.22.12.21.33.21h.47c.07,0,.1,0,.1.07v.23c0,.07,0,.09-.08.09s-.55,0-1.13,0c-.73,0-1,0-1.08,0s-.07,0-.07-.08v-.24a.07.07,0,0,1,.08-.07h.34c.3,0,.44-.13.58-.45.07-.16.79-2,1.08-2.81.07-.2.88-2.34,1-2.6a.4.4,0,0,0,0-.34.28.28,0,0,1-.07-.13s0-.07.09-.09a2,2,0,0,0,.82-.5s.08-.08.13-.08.08,0,.11.16c.19.63,1,2.85,1.15,3.49s.87,2.62,1,2.91a.75.75,0,0,0,.68.44h.32c.06,0,.09,0,.09.07v.25s0,.07-.11.07-.38,0-1.19,0-1.17,0-1.4,0c0,0-.08,0-.08-.09v-.23s0-.07.09-.07h.25c.28,0,.37-.09.3-.37s-.49-1.63-.63-2Z" transform="translate(-15.93 -56.18)"/><path class="cls-1" d="M121.48,76c0-.24,0-2,0-2.17s-.12-.34-.5-.34h-.57c-.05,0-.08,0-.08-.06V73.2s0-.06.07-.06.62,0,1.55,0,1.2,0,1.34,0a.06.06,0,0,1,.07.07v.25c0,.05,0,.07-.08.07h-.47c-.2,0-.35.08-.35.28s0,2.29,0,2.41V77c0,.1,0,2.4,0,2.51,0,.3.15.35.47.35h.41s.08,0,.08.07v.26s0,.06-.09.06-.52,0-1.38,0-1.37,0-1.48,0-.08,0-.08-.06V79.9s0-.06.08-.06H121c.2,0,.41,0,.45-.28s0-2.3,0-2.82Z" transform="translate(-15.93 -56.18)"/><path class="cls-1" d="M126,74.46c0-.58-.3-.91-.66-.92h-.41s-.06,0-.06-.07V73.2s0-.06.06-.06h.28l.71,0c.33,0,.54,0,.66,0a.35.35,0,0,1,.29.13c.05.06,2,2.56,2.08,2.7s1.79,2.2,2,2.52h0V77.31c0-.88,0-1.37,0-1.86a11.59,11.59,0,0,0-.12-1.53.53.53,0,0,0-.55-.39H130s-.06,0-.06-.07V73.2a.05.05,0,0,1,.06-.06c.14,0,.45,0,1.09,0s.83,0,1,0,.08,0,.08.07v.25s0,.07-.06.07h-.27c-.26,0-.36.17-.38.54,0,.67,0,1.65,0,2.3v3.71c0,.14,0,.24-.05.24s-.21-.12-.24-.16l-1.21-1.53c-.7-.86-1.42-1.77-1.48-1.83s-1.94-2.4-2-2.48h0v2.21c0,.92.07,2.54.09,2.74,0,.39.1.57.37.57h.3c.07,0,.08,0,.08.09v.22c0,.06,0,.08-.08.08l-1,0-1,0s0,0,0-.07V79.9a.05.05,0,0,1,.06-.06h.34c.29,0,.4-.11.45-.6,0-.19,0-1.32,0-3.09Z" transform="translate(-15.93 -56.18)"/><path class="cls-1" d="M133.67,85.85a.87.87,0,0,0-.44.12,4.4,4.4,0,0,0-.51.29c-.23.15-.46.3-.69.47s-.36.28-.54.41-.58.47-.86.72-.79.78-1.19,1.18l-.08.1.3.34a1.07,1.07,0,0,0,.6-.15,2.91,2.91,0,0,0,.77-.57c.77-.76,1.56-1.49,2.26-2.31a1.81,1.81,0,0,0,.38-.6M115,97.08s0,0,0,0a4.1,4.1,0,0,1-1.78-.5,3.1,3.1,0,0,1-1-.74,2.66,2.66,0,0,1-.33-.44,2.95,2.95,0,0,1-.34-1.19,1.22,1.22,0,0,0,0-.27,2.86,2.86,0,0,1,.19-1,2.53,2.53,0,0,1,.26-.52,1.22,1.22,0,0,1,.27-.24l.16.07a.55.55,0,0,1,0,.18,1.41,1.41,0,0,1-.13.24,3.09,3.09,0,0,0-.29.82,4.93,4.93,0,0,0,0,.77,2.49,2.49,0,0,0,.09.46,2.18,2.18,0,0,0,.34.66,2.9,2.9,0,0,0,1.21,1,4.79,4.79,0,0,0,.93.29,8.67,8.67,0,0,0,1.69.1c.14,0,.27-.08.41-.06a.93.93,0,0,0,.4,0,2,2,0,0,1,.49-.07,3.86,3.86,0,0,0,.59-.12c.28-.1.58-.15.85-.26s.44-.18.67-.26a11.94,11.94,0,0,0,1.35-.65,9.35,9.35,0,0,0,.86-.52c.16-.09.31-.19.46-.29l.76-.55c.24-.17.47-.34.69-.52s.46-.4.7-.58a11.11,11.11,0,0,0,1.08-1l.62-.56c.5-.51,1-1,1.48-1.54.25-.29.54-.54.77-.84s.49-.48.71-.75.51-.51.74-.8.49-.52.74-.79c.11-.12.2-.25.31-.36a4,4,0,0,1,.39-.33c.13-.11.21-.27.38-.33a4.84,4.84,0,0,1,.9-.68,3.14,3.14,0,0,1,1.14-.47,2,2,0,0,1,.41,0c.16,0,.23.07.26.25a.68.68,0,0,1-.2.07,1.43,1.43,0,0,0-.77.29,2.78,2.78,0,0,0-.27.21c-.09.07-.18.13-.27.21l-1,1c.07,0,.11,0,.13,0a5.93,5.93,0,0,1,1-.65l.41-.2a.43.43,0,0,1,.16,0H134l.24.28a2.62,2.62,0,0,0,0,.29,1.77,1.77,0,0,1-.2.85,3.09,3.09,0,0,1-.53.89,5,5,0,0,1-.38.41,11.45,11.45,0,0,1-1.09.89,4.55,4.55,0,0,1-1.56.69,1.11,1.11,0,0,1-.25,0c-.07,0-.14,0-.21,0a.14.14,0,0,1-.15,0c-.09-.08-.19,0-.28,0l-.32-.24,0,0a2,2,0,0,1-.09-.2c-.27.27-.54.51-.77.78-.55.65-1.18,1.22-1.78,1.82-.27.26-.54.54-.83.78s-.45.43-.71.61c-.43.29-.83.64-1.26.94s-.92.61-1.39.89c-.13.08-.26.14-.39.21s-.33.21-.51.29a17.69,17.69,0,0,1-1.69.7c-.25.09-.5.18-.75.25s-.56.14-.83.19l-.76.15a3.29,3.29,0,0,1-.83.07s-.1,0-.1,0Z" transform="translate(-15.93 -56.18)"/><path class="cls-1" d="M134.09,89.49c.08,0,.16,0,.22,0a2.89,2.89,0,0,0,.43-.22,9.2,9.2,0,0,0,1.35-1.07c.49-.46,1-1,1.44-1.43l.13-.14c.16-.21.31-.42.47-.65a1,1,0,0,0-.09-.17s0,.06,0,.06a1.1,1.1,0,0,0-.57.23,11,11,0,0,0-1.24.92,6.53,6.53,0,0,0-.62.56c-.31.3-.62.61-.9.94a4.8,4.8,0,0,0-.56.85s0,.08,0,.15m5.84-3.75c-.17.16-.34.34-.53.5-.52.44-1,.94-1.47,1.42-.26.26-.51.52-.74.8s-.36.45-.53.69c0,.07-.12.15-.07.27a.58.58,0,0,0,.22,0,3.76,3.76,0,0,0,.87-.55c.35-.28.7-.55,1-.85a3.33,3.33,0,0,0,.39-.36c.08-.09.2,0,.26-.13l.14.15q0,.09-.06.21c-.19.08-.29.28-.45.38a5,5,0,0,0-.42.37c-.37.26-.69.57-1.07.81a3.86,3.86,0,0,1-.95.44.74.74,0,0,1-.59-.15.63.63,0,0,1-.21-.54,1,1,0,0,1,.08-.26c-.32.23-.59.43-.88.62a1.57,1.57,0,0,1-.93.33,1.08,1.08,0,0,1-.27,0l-.27-.25c0-.12,0-.25,0-.37a1.31,1.31,0,0,1,.16-.7,3.88,3.88,0,0,1,.38-.69,3.32,3.32,0,0,1,.32-.42c.15-.15.29-.3.45-.45a5.62,5.62,0,0,1,1.16-.84c.14-.07.26-.16.4-.23a5.79,5.79,0,0,0,.68-.29c.21,0,.39-.16.61-.11a.65.65,0,0,1,.51,0c.18,0,.33.11.35.32,0,0,0,0,0,0v0l-.08.21a3,3,0,0,0,.31-.19,1.69,1.69,0,0,1,.62-.25,3.86,3.86,0,0,1,.58,0Z" transform="translate(-15.93 -56.18)"/><path class="cls-1" d="M137,81.19v.33a1.84,1.84,0,0,1-.2.19.34.34,0,0,1-.33-.23,2,2,0,0,0-.27-.44,1,1,0,0,0-.72-.31,1.85,1.85,0,0,0-.47,0,2.19,2.19,0,0,0-.52.12,4.18,4.18,0,0,0-1,.59l-.38.34-.37.31c-.11.12-.22.26-.33.39a4.17,4.17,0,0,0-.34.38,2.93,2.93,0,0,1-.36.43c-.25.29-.48.6-.71.92l-.42.54c-.15.19-.31.38-.46.58s-.26.36-.39.55-.4.47-.57.73a3.59,3.59,0,0,1-.32.36c-.21.25-.45.5-.68.74s-.64.59-1,.88a11.86,11.86,0,0,1-1.35,1,6.9,6.9,0,0,1-1.18.6c-.27.11-.54.2-.82.29a1.66,1.66,0,0,1-.37.09l-.26.06c-.07,0-.15,0-.23,0s-.1,0-.16,0c-.25,0-.51,0-.77,0a3.7,3.7,0,0,1-.8-.18,1.91,1.91,0,0,1-.84-.64,1.82,1.82,0,0,1-.32-.69,3.53,3.53,0,0,1,0-1.21,4.16,4.16,0,0,1,.34-1.24l.27-.6a5.27,5.27,0,0,1,.53-.85A9.77,9.77,0,0,1,123.54,83a6.39,6.39,0,0,1,1.14-.64,8.1,8.1,0,0,1,1.29-.42c.18-.05.37-.05.56-.09a2.27,2.27,0,0,1,.58,0l.21.13c0,.06,0,.13,0,.17a3.31,3.31,0,0,1-.66.1,2.29,2.29,0,0,0-.63.19,7.24,7.24,0,0,0-1,.49c-.32.17-.58.41-.89.58a1.93,1.93,0,0,0-.35.29c-.17.15-.34.32-.52.46a7.13,7.13,0,0,0-.93.89,13.44,13.44,0,0,0-.89,1.08,10.29,10.29,0,0,0-.69,1.15,1.77,1.77,0,0,0-.15.38c0,.13,0,.27-.09.4a2.38,2.38,0,0,0,0,.7,1.35,1.35,0,0,0,.31.88,2,2,0,0,0,.75.53.65.65,0,0,0,.2,0,1.93,1.93,0,0,1,.42,0,.42.42,0,0,0,.38,0s.09,0,.14,0a2.91,2.91,0,0,0,1-.23c.2-.09.4-.17.58-.27s.57-.35.85-.55a16.52,16.52,0,0,0,2.08-1.93c.27-.28.51-.58.76-.87s.6-.72.88-1.1.51-.62.75-1,.33-.36.48-.55.48-.49.69-.76a3.94,3.94,0,0,1,.44-.47c.38-.34.75-.69,1.15-1s.55-.39.83-.59.43-.2.64-.31a4,4,0,0,1,.81-.25,1.47,1.47,0,0,1,.46-.07,3.42,3.42,0,0,1,.64,0,2,2,0,0,1,1.11.43,1.54,1.54,0,0,1,.25.36" transform="translate(-15.93 -56.18)"/><path class="cls-1" d="M115.64,86.78a4,4,0,0,0,1.87-1.46c0-.1,0-.21-.07-.3h-.24a1.66,1.66,0,0,0-.44.27,2.58,2.58,0,0,0-.32.34,3.77,3.77,0,0,0-.8,1.15m-.77.5a7.71,7.71,0,0,0-2.09,1.09s0,0,0,0a.74.74,0,0,0,.61.4c.18,0,.36,0,.58,0-.18.11-.36.08-.5.16-.15-.09-.33-.06-.49-.14a1.7,1.7,0,0,1-.41-.31,3.3,3.3,0,0,1-.3.43.85.85,0,0,0-.21.66c0,.11,0,.22,0,.33l.12.17a1.18,1.18,0,0,0,.91.4,1,1,0,0,0,.58,0,1.94,1.94,0,0,0,.72-.11c.11,0,.25,0,.32-.15a2.59,2.59,0,0,1-.22-1,3.38,3.38,0,0,1,.11-1l.15-.62c0-.11.13-.19.12-.33m.47,2.71.15-.07a4.51,4.51,0,0,0,1.1-.71,6.84,6.84,0,0,0,1.29-1.45,3,3,0,0,0,.57-1.83,1,1,0,0,0,0-.24,1.57,1.57,0,0,0-.6-.87,1.33,1.33,0,0,0-.47-.25,2.56,2.56,0,0,0-.48-.1c-.17,0-.34,0-.5,0s-.34,0-.5,0a2,2,0,0,0-.65.11,3.35,3.35,0,0,0-1.32.66c-.16,0-.22.2-.35.29s-.18.19-.28.29a1.87,1.87,0,0,0-.28.35c-.07.11-.12.23-.19.33a1.9,1.9,0,0,0-.3,1,3.3,3.3,0,0,0,0,.44l.07.13a16.4,16.4,0,0,1,2.38-1l.1-.17a6.37,6.37,0,0,1,.76-1,3.31,3.31,0,0,1,.62-.56,2.43,2.43,0,0,1,.74-.41.41.41,0,0,1,.45.08c0,.31,0,.48-.11.61a2.89,2.89,0,0,1-.57.59,7.51,7.51,0,0,1-1.2.75l-.22.11a3.36,3.36,0,0,0-.15.39c0,.14,0,.31-.07.41s0,.22-.07.33a1.17,1.17,0,0,0,0,.38c0,.11,0,.22,0,.33s.06.28,0,.42a2.12,2.12,0,0,0,.14.69m-3-1.8v-.06a1.82,1.82,0,0,1-.1-1,1.49,1.49,0,0,1,.28-.73,3.94,3.94,0,0,1,.61-.8,5.18,5.18,0,0,1,1.34-.88,8.9,8.9,0,0,1,1-.34,5.63,5.63,0,0,1,1.42-.1c.11.07.25,0,.37.09a2,2,0,0,1,.62.25,1.81,1.81,0,0,1,.35.33,1.37,1.37,0,0,1,.31.48,1.52,1.52,0,0,1,.14.63c0,.13,0,.26,0,.38s0,.25,0,.37-.08.2-.11.31a4.18,4.18,0,0,1-.59,1.08c-.17.2-.33.42-.51.61s-.38.32-.57.48l-.5.38-.92.55a.18.18,0,0,1,.07,0,.63.63,0,0,0,.71.33,1.12,1.12,0,0,0,.61-.19,3.53,3.53,0,0,1,.32-.21l.14,0a2.37,2.37,0,0,1-.83.67,1.55,1.55,0,0,1-.92.09,1.21,1.21,0,0,1-.39-.14,3.46,3.46,0,0,1-.35-.33l-.21.06c-.26.09-.53.13-.79.22h0a8.39,8.39,0,0,1-1,.06,2.54,2.54,0,0,1-.78-.18.94.94,0,0,1-.59-.62,1.17,1.17,0,0,1,0-.72,1.69,1.69,0,0,1,.35-.53,4.7,4.7,0,0,1,.58-.51" transform="translate(-15.93 -56.18)"/><path class="cls-1" d="M69.86,86.29c0-.64,0-1.69,0-1.87s-.07-.35-.37-.35H69c-.06,0-.07,0-.07-.1v-.22s0-.07.07-.07.46,0,1.29,0,1.38,0,1.47,0,.09,0,.09.08V84c0,.05,0,.08-.1.08h-.6c-.31,0-.35.1-.35.38,0,.13,0,1.63,0,2.33v.85c0,.17,0,2.31,0,2.72.22,0,2.19,0,2.5,0,.58-.09,1.18-1.28,1.32-1.67,0,0,0-.06.08,0l.15.06s0,0,0,.09-.42,1.71-.48,2l-1.79,0H69.32l-.38,0c-.07,0-.08,0-.08-.07v-.25s0-.07.07-.07h.47c.37,0,.43-.14.43-.27s0-2.66,0-3.26Z" transform="translate(-15.93 -56.18)"/><path class="cls-1" d="M82.42,87.39c0-2.17-1.55-3.45-2.65-3.45a1.92,1.92,0,0,0-1.57.58,3.53,3.53,0,0,0-1,2.46c0,2.61,1.81,3.53,2.66,3.53,2.18,0,2.55-2.23,2.55-3.12m-4.76,2.85a3.47,3.47,0,0,1-1.47-2.95,3.84,3.84,0,0,1,.93-2.47,3.24,3.24,0,0,1,2.69-1.26,3.34,3.34,0,0,1,2.22.78,3.82,3.82,0,0,1,1.36,3,3.67,3.67,0,0,1-.74,2.18,3.39,3.39,0,0,1-2.86,1.4,4.29,4.29,0,0,1-2.13-.65" transform="translate(-15.93 -56.18)"/><path class="cls-1" d="M87,87.14c0,.13,0,1.82,0,2.44a.93.93,0,0,0,.17.55,1.36,1.36,0,0,0,1,.32,2.91,2.91,0,0,0,2.33-1.07,3.63,3.63,0,0,0,.73-2.24A3.51,3.51,0,0,0,90.48,85,3.3,3.3,0,0,0,88,84a2,2,0,0,0-.79.1c-.14.09-.18.24-.19.46,0,.42,0,1.72,0,1.88Zm-.92-1c0-.26,0-1.67,0-1.84s-.15-.27-.42-.27h-.55S85,84.06,85,84v-.27s0,0,.07,0,.57,0,1.46,0l1.48,0a4.71,4.71,0,0,1,3.23.89,3.22,3.22,0,0,1,1.1,2.53,3.57,3.57,0,0,1-1,2.62,3.94,3.94,0,0,1-3.09,1c-.63,0-1.38,0-1.83,0-.86,0-1.26,0-1.4,0s-.07,0-.07-.07v-.26s0-.06.08-.06h.67c.19,0,.3-.08.32-.24s.06-2.44.06-3.22Z" transform="translate(-15.93 -56.18)"/><path class="cls-1" d="M99.71,88.54c0-.35-.1-.45-.4-.45h-.42s-.07,0-.07-.06v-.25c0-.06,0-.08.06-.08s.59,0,1.26,0,1,0,1.17,0,.08,0,.08.07V88s0,.08-.07.08h-.38c-.18,0-.31.07-.31.37v1.31c0,.14,0,.24,0,.32s-.06.12-.16.16a5.57,5.57,0,0,1-2.71.64A3.52,3.52,0,0,1,94.11,87a3.42,3.42,0,0,1,1.12-2.52A4.1,4.1,0,0,1,98,83.56a3.46,3.46,0,0,1,2,.58c.11.09.17.07.23,0l.15-.18s.08-.09.14-.09.09,0,.09.12l0,1.89s0,.09,0,.09l-.18,0s-.07,0-.08-.08a3.53,3.53,0,0,0-.59-1.17,2.33,2.33,0,0,0-1.81-.81,2.41,2.41,0,0,0-1.9.8A3.37,3.37,0,0,0,95.13,87a3.84,3.84,0,0,0,.94,2.78,2.47,2.47,0,0,0,1.75.71,3.19,3.19,0,0,0,1.63-.34c.23-.14.26-.36.26-.87Z" transform="translate(-15.93 -56.18)"/><path class="cls-1" d="M104.91,86.94c.08,0,1.14,0,1.26-.06.29,0,.37-.13.45-.44a2.27,2.27,0,0,0,.09-.49s0-.07.06-.07H107a.06.06,0,0,1,.06.08c0,.17,0,1,0,1.13,0,.35,0,.83.06,1,0,0,0,.06-.06.08l-.22,0s-.06,0-.07-.09-.08-.36-.11-.47a.47.47,0,0,0-.43-.39c-.47,0-1.15,0-1.31,0v.62c0,.54,0,1.5,0,1.7,0,.51.26.71.56.77a4.14,4.14,0,0,0,.74.07c.17,0,.66,0,.87,0A1.93,1.93,0,0,0,108,90a9,9,0,0,0,.81-1s.06-.09.12-.06l.16.09s0,.06,0,.14l-.53,1.46a.21.21,0,0,1-.22.15l-.86,0h-4l-.43,0c-.06,0-.09,0-.09-.07v-.27s0-.05.1-.05h.4c.46,0,.49-.07.49-.44V86.62c0-.82,0-2.07,0-2.17,0-.31-.14-.38-.51-.38h-.36s-.08,0-.08-.07v-.27s0,0,.07,0c.22,0,.57,0,1.22,0h3.39l.4,0a.07.07,0,0,1,.07,0c0,.14.48,1.5.51,1.6s0,.07,0,.09l-.15.08s-.07,0-.08,0a8,8,0,0,0-1-1.14,1.53,1.53,0,0,0-.75-.26l-1.77,0Z" transform="translate(-15.93 -56.18)"/><path class="cls-1" d="M69.51,94.59l-.18.52h-.25l.67-1.78H70l.64,1.78H70.4l-.18-.52Zm.63-.21-.26-.79h0l-.28.79Z" transform="translate(-15.93 -56.18)"/><polygon class="cls-1" points="57.72 37.15 57.95 37.15 57.95 38.93 57.68 38.93 56.78 37.49 56.77 37.49 56.77 38.93 56.54 38.93 56.54 37.15 56.83 37.15 57.72 38.59 57.72 38.59 57.72 37.15"/><path class="cls-1" d="M75.52,95.15a.94.94,0,1,1,.87-.93.85.85,0,0,1-.87.93m0-1.66a.65.65,0,0,0-.62.73.63.63,0,1,0,1.24,0c0-.42-.23-.73-.62-.73" transform="translate(-15.93 -56.18)"/><path class="cls-1" d="M77.16,93.33h.78a.45.45,0,0,1,.51.45.39.39,0,0,1-.24.37.42.42,0,0,1,.32.43.54.54,0,0,1-.6.53h-.77Zm.24.75h.44c.23,0,.37-.07.37-.29s-.1-.26-.37-.26H77.4Zm0,.82h.52c.25,0,.37-.13.37-.32s-.22-.3-.41-.3H77.4Z" transform="translate(-15.93 -56.18)"/><polygon class="cls-1" points="63.63 38.72 64.53 38.72 64.53 38.93 63.38 38.93 63.38 37.15 63.63 37.15 63.63 38.72"/><polygon class="cls-1" points="66.59 38.93 65.28 38.93 65.28 37.15 66.57 37.15 66.57 37.36 65.52 37.36 65.52 37.91 66.49 37.91 66.49 38.12 65.52 38.12 65.52 38.72 66.59 38.72 66.59 38.93"/><polygon class="cls-1" points="69.75 37.15 70 37.15 70 38.93 69.75 38.93 69.75 38.1 68.83 38.1 68.83 38.93 68.59 38.93 68.59 37.15 68.83 37.15 68.83 37.89 69.75 37.89 69.75 37.15"/><path class="cls-1" d="M87.56,95.15a.94.94,0,1,1,.87-.93.85.85,0,0,1-.87.93m0-1.66c-.38,0-.61.31-.61.73s.23.72.61.72a.63.63,0,0,0,.62-.72c0-.42-.23-.73-.62-.73" transform="translate(-15.93 -56.18)"/><path class="cls-1" d="M90.62,93.33v1.15a.64.64,0,0,1-.72.67.61.61,0,0,1-.68-.64V93.33h.24v1.12a.43.43,0,0,0,.45.49.43.43,0,0,0,.47-.49V93.33Z" transform="translate(-15.93 -56.18)"/><path class="cls-1" d="M92.56,93.85c0-.28-.24-.36-.44-.36s-.4,0-.4.31.1.2.21.22l.5.12a.47.47,0,0,1,.41.48c0,.42-.39.53-.7.53A.72.72,0,0,1,91.6,95a.54.54,0,0,1-.18-.45h.23c0,.32.26.42.49.42s.46,0,.46-.3-.08-.25-.38-.32l-.36-.08a.44.44,0,0,1-.38-.42.54.54,0,0,1,.61-.55c.63,0,.69.37.7.57Z" transform="translate(-15.93 -56.18)"/><polygon class="cls-1" points="79.05 38.93 77.73 38.93 77.73 37.15 79.03 37.15 79.03 37.36 77.97 37.36 77.97 37.91 78.95 37.91 78.95 38.12 77.97 38.12 77.97 38.72 79.05 38.72 79.05 38.93"/><path class="cls-1" d="M97.23,95.11H97V93.33h.83c.29,0,.58.1.58.48a.42.42,0,0,1-.25.42c.1,0,.21.09.22.34v.32c0,.1,0,.13.09.18v0h-.29a1.93,1.93,0,0,1-.05-.45c0-.15,0-.32-.31-.32h-.59Zm0-1h.56c.18,0,.36,0,.36-.31a.28.28,0,0,0-.32-.3h-.6Z" transform="translate(-15.93 -56.18)"/><polygon class="cls-1" points="84.66 38.93 83.34 38.93 83.34 37.15 84.64 37.15 84.64 37.36 83.59 37.36 83.59 37.91 84.56 37.91 84.56 38.12 83.59 38.12 83.59 38.72 84.66 38.72 84.66 38.93"/><path class="cls-1" d="M102.46,93.85c0-.28-.24-.36-.44-.36s-.4,0-.4.31.1.2.21.22l.51.12a.46.46,0,0,1,.4.48c0,.42-.39.53-.7.53a.71.71,0,0,1-.53-.17.51.51,0,0,1-.18-.45h.22c0,.32.26.42.49.42s.47,0,.47-.3-.09-.25-.38-.32l-.37-.08a.44.44,0,0,1-.38-.42.55.55,0,0,1,.62-.55c.62,0,.68.37.69.57Z" transform="translate(-15.93 -56.18)"/><path class="cls-1" d="M104.31,95.15a.94.94,0,1,1,.87-.93.85.85,0,0,1-.87.93m0-1.66a.65.65,0,0,0-.62.73.63.63,0,1,0,1.24,0c0-.42-.23-.73-.62-.73" transform="translate(-15.93 -56.18)"/><path class="cls-1" d="M106.23,95.11H106V93.33h.82c.29,0,.58.1.58.48a.43.43,0,0,1-.24.42c.1,0,.2.09.21.34v.32c0,.1,0,.13.09.18v0h-.29a1.87,1.87,0,0,1,0-.45c0-.15,0-.32-.32-.32h-.58Zm0-1h.55c.18,0,.37,0,.37-.31a.28.28,0,0,0-.32-.3h-.6Z" transform="translate(-15.93 -56.18)"/><polygon class="cls-1" points="92.16 37.15 93.6 37.15 93.6 37.36 93 37.36 93 38.93 92.76 38.93 92.76 37.36 92.16 37.36 92.16 37.15"/></svg>